<?xml version="1.0" encoding="utf-8"?>
<!-- Generator: Adobe Illustrator 27.1.1, SVG Export Plug-In . SVG Version: 6.00 Build 0)  -->
<svg version="1.1" id="Layer_1" xmlns="http://www.w3.org/2000/svg" xmlns:xlink="http://www.w3.org/1999/xlink" x="0px" y="0px"
	 viewBox="0 0 700 700" style="enable-background:new 0 0 700 700;" xml:space="preserve">
<style type="text/css">
	.st0{fill:#5E006B;}
</style>
<g>
	<path class="st0" d="M259.7,341.3h46.9l-23.4-43L259.7,341.3z"/>
	<path class="st0" d="M345,262.5c9.6,0,18.5,3.3,23.2,8.8c4.8,5.4,4.8,12.1,0,17.5c-4.8,5.4-13.7,8.8-23.2,8.8
		c13.6,0,26.7-3.6,36.3-9.8h0c6.2-4.1,6.2-11.3,0-15.4h0C371.7,266.1,358.6,262.5,345,262.5z"/>
	<path class="st0" d="M350,384.2l13.9-25.5h-27.8L350,384.2z"/>
	<path class="st0" d="M325.9,280c0-4.6,2.5-9.1,7.1-12.4s10.6-5.1,17-5.1c-12.2,0-23.9,3.6-32.6,9.8h0c-5.8,4.2-5.8,11.1,0,15.4h0
		c8.7,6.3,20.4,9.8,32.6,9.8c-6.4,0-12.5-1.8-17-5.1S325.9,284.6,325.9,280z"/>
	<path class="st0" d="M439.2,428.6l-40.2,8.1l-15.5,23.2c-1.6,2.4-4.3,3.9-7.3,3.9h-87.5c-1.5,0-2.9-0.4-4.2-1.1l-65.8-36.5V490
		c0,2.3,0.9,4.5,2.6,6.2s3.9,2.6,6.2,2.6h245c2.3,0,4.5-0.9,6.2-2.6s2.6-3.9,2.6-6.2v-95.1l-38.1,31.8
		C442,427.6,440.7,428.3,439.2,428.6L439.2,428.6z"/>
	<path class="st0" d="M373.4,218.8h-46.9L293.1,280l33.4,61.2h46.9l33.5-61.2L373.4,218.8z M386.1,300.1
		c-9.6,9.6-22.5,14.9-36.1,14.9s-26.5-5.4-36.1-14.9l-13.9-13.9v0c-3.4-3.4-3.4-9,0-12.4l13.9-13.9v0c9.6-9.6,22.5-14.9,36.1-14.9
		s26.5,5.4,36.1,14.9l13.9,13.9v0c3.4,3.4,3.4,9,0,12.4L386.1,300.1z"/>
	<path class="st0" d="M306.6,218.8h-46.9l23.4,43L306.6,218.8z"/>
	<path class="st0" d="M350,175.8l-13.9,25.5h27.8L350,175.8z"/>
	<path class="st0" d="M472.5,109.4c0,21.7-17.6,39.4-39.4,39.4s-39.4-17.6-39.4-39.4S411.4,70,433.1,70S472.5,87.6,472.5,109.4"/>
	<path class="st0" d="M490,26.2H210c-7,0-13.6,2.8-18.6,7.7s-7.7,11.6-7.7,18.6v455c0,7,2.8,13.6,7.7,18.6s11.6,7.7,18.6,7.7h280
		c7,0,13.6-2.8,18.6-7.7s7.7-11.6,7.7-18.6v-455c0-7-2.8-13.6-7.7-18.6S497,26.3,490,26.2L490,26.2z M498.8,490
		c0,7-2.8,13.6-7.7,18.6s-11.6,7.7-18.6,7.7h-245c-7,0-13.6-2.8-18.6-7.7s-7.7-11.6-7.7-18.6V70c0-7,2.8-13.6,7.7-18.6
		s11.6-7.7,18.6-7.7h245c7,0,13.6,2.8,18.6,7.7s7.7,11.6,7.7,18.6V490z"/>
	<path class="st0" d="M416.8,261.7l23.4-43h-46.9L416.8,261.7z"/>
	<path class="st0" d="M472.5,61.2h-245c-4.8,0-8.8,3.9-8.8,8.8v336.1l72.3,40.1h80.6l14.9-22.4h0c1.3-1.9,3.3-3.3,5.6-3.7l41.6-8.3
		l47.7-39.7V70c0-2.3-0.9-4.5-2.6-6.2S474.8,61.3,472.5,61.2L472.5,61.2z M462.7,345.8c1.5,2.7,1.4,6-0.2,8.7
		c-1.6,2.7-4.4,4.3-7.5,4.3h-71.2l-26.1,47.9c-1.5,2.8-4.5,4.6-7.7,4.6s-6.1-1.8-7.7-4.6l-26.1-47.9H245c-3.1,0-5.9-1.6-7.5-4.3
		c-1.6-2.7-1.6-5.9-0.2-8.7l35.9-65.8l-35.9-65.8c-1.5-2.7-1.4-6,0.2-8.7c1.6-2.7,4.4-4.3,7.5-4.3h71.2l26.1-47.9
		c1.7-2.6,4.6-4.2,7.7-4.2s6,1.6,7.7,4.2l26.1,47.9H455c3.1,0,5.9,1.6,7.5,4.3c1.6,2.7,1.6,5.9,0.2,8.7L426.8,280L462.7,345.8z
		 M420,166.2c-11.6,0-22.7-4.6-30.9-12.8c-8.2-8.2-12.8-19.3-12.8-30.9s4.6-22.7,12.8-30.9c8.2-8.2,19.3-12.8,30.9-12.8
		s22.7,4.6,30.9,12.8c8.2,8.2,12.8,19.3,12.8,30.9c0,11.6-4.6,22.7-12.8,30.9C442.7,161.6,431.6,166.2,420,166.2z"/>
	<path class="st0" d="M393.4,341.3h46.9l-23.4-43L393.4,341.3z"/>
</g>
</svg>
