<?xml version="1.0" encoding="UTF-8"?>
<svg width="700pt" height="700pt" version="1.1" viewBox="0 0 700 700" xmlns="http://www.w3.org/2000/svg" xmlns:xlink="http://www.w3.org/1999/xlink">
 <defs>
  <symbol id="l" overflow="visible">
   <path d="m29.312-1.75c-1.5117 0.78125-3.0898 1.3711-4.7344 1.7656-1.6367 0.40625-3.3398 0.60938-5.1094 0.60938-5.3125 0-9.5273-1.4844-12.641-4.4531-3.1055-2.9688-4.6562-7-4.6562-12.094s1.5508-9.125 4.6562-12.094c3.1133-2.9688 7.3281-4.4531 12.641-4.4531 1.7695 0 3.4727 0.19922 5.1094 0.59375 1.6445 0.39844 3.2227 0.99219 4.7344 1.7812v6.5938c-1.5312-1.0391-3.0391-1.8008-4.5156-2.2812-1.4805-0.48828-3.0391-0.73438-4.6719-0.73438-2.9375 0-5.2461 0.94531-6.9219 2.8281-1.6797 1.875-2.5156 4.4648-2.5156 7.7656 0 3.293 0.83594 5.8828 2.5156 7.7656 1.6758 1.875 3.9844 2.8125 6.9219 2.8125 1.6328 0 3.1914-0.23828 4.6719-0.71875 1.4766-0.48828 2.9844-1.2539 4.5156-2.2969z"/>
  </symbol>
  <symbol id="c" overflow="visible">
   <path d="m21.453-17.406c-0.67969-0.3125-1.3516-0.53906-2.0156-0.6875-0.65625-0.15625-1.3203-0.23438-1.9844-0.23438-1.9688 0-3.4844 0.63281-4.5469 1.8906-1.0547 1.2617-1.5781 3.0703-1.5781 5.4219v11.016h-7.6562v-23.922h7.6562v3.9219c0.97656-1.5625 2.1016-2.7031 3.375-3.4219 1.2812-0.71875 2.8125-1.0781 4.5938-1.0781 0.25 0 0.52344 0.011719 0.82812 0.03125 0.30078 0.023438 0.73438 0.070312 1.2969 0.14062z"/>
  </symbol>
  <symbol id="b" overflow="visible">
   <path d="m27.562-12.031v2.1875h-17.891c0.1875 1.793 0.83203 3.1367 1.9375 4.0312 1.1133 0.89844 2.6719 1.3438 4.6719 1.3438 1.6016 0 3.25-0.23438 4.9375-0.70312 1.6875-0.47656 3.4219-1.2031 5.2031-2.1719v5.8906c-1.8047 0.6875-3.6094 1.2031-5.4219 1.5469-1.8125 0.35156-3.6211 0.53125-5.4219 0.53125-4.3359 0-7.7031-1.0977-10.109-3.2969-2.3984-2.207-3.5938-5.2969-3.5938-9.2656 0-3.9062 1.1758-6.9727 3.5312-9.2031 2.3633-2.2383 5.6094-3.3594 9.7344-3.3594 3.7578 0 6.7695 1.1367 9.0312 3.4062 2.2578 2.2617 3.3906 5.2812 3.3906 9.0625zm-7.8594-2.5312c0-1.457-0.42969-2.6289-1.2812-3.5156-0.84375-0.89453-1.9492-1.3438-3.3125-1.3438-1.4922 0-2.6992 0.41797-3.625 1.25-0.91797 0.83594-1.4922 2.0391-1.7188 3.6094z"/>
  </symbol>
  <symbol id="a" overflow="visible">
   <path d="m14.391-10.766c-1.5938 0-2.793 0.27344-3.5938 0.8125-0.80469 0.54297-1.2031 1.3398-1.2031 2.3906 0 0.96875 0.32031 1.7305 0.96875 2.2812 0.64453 0.54297 1.5469 0.8125 2.7031 0.8125 1.4375 0 2.6445-0.51562 3.625-1.5469 0.98828-1.0312 1.4844-2.3203 1.4844-3.875v-0.875zm11.688-2.8906v13.656h-7.7031v-3.5469c-1.0312 1.4492-2.1875 2.5078-3.4688 3.1719s-2.8398 1-4.6719 1c-2.4805 0-4.4961-0.72266-6.0469-2.1719-1.543-1.4453-2.3125-3.3203-2.3125-5.625 0-2.8125 0.96094-4.8672 2.8906-6.1719 1.9375-1.3125 4.9688-1.9688 9.0938-1.9688h4.5156v-0.60938c0-1.207-0.48047-2.0938-1.4375-2.6562-0.94922-0.5625-2.4375-0.84375-4.4688-0.84375-1.6367 0-3.1562 0.16797-4.5625 0.5-1.4062 0.32422-2.7188 0.8125-3.9375 1.4688v-5.8281c1.6445-0.40625 3.2891-0.70703 4.9375-0.90625 1.6562-0.20703 3.3047-0.3125 4.9531-0.3125 4.3203 0 7.4375 0.85547 9.3438 2.5625 1.9141 1.6992 2.875 4.4609 2.875 8.2812z"/>
  </symbol>
  <symbol id="d" overflow="visible">
   <path d="m12.031-30.719v6.7969h7.875v5.4688h-7.875v10.141c0 1.1172 0.21875 1.8711 0.65625 2.2656 0.4375 0.38672 1.3125 0.57812 2.625 0.57812h3.9375v5.4688h-6.5625c-3.0234 0-5.1641-0.62891-6.4219-1.8906-1.2617-1.2578-1.8906-3.3984-1.8906-6.4219v-10.141h-3.7969v-5.4688h3.7969v-6.7969z"/>
  </symbol>
  <symbol id="h" overflow="visible">
   <path d="m19.953-20.422v-12.812h7.6875v33.234h-7.6875v-3.4531c-1.0547 1.4062-2.2148 2.4375-3.4844 3.0938-1.2734 0.65625-2.7422 0.98438-4.4062 0.98438-2.9492 0-5.3711-1.1719-7.2656-3.5156-1.8867-2.3438-2.8281-5.3594-2.8281-9.0469s0.94141-6.7031 2.8281-9.0469c1.8945-2.3438 4.3164-3.5156 7.2656-3.5156 1.6562 0 3.1172 0.33594 4.3906 1 1.2812 0.65625 2.4453 1.6836 3.5 3.0781zm-5.0469 15.484c1.6445 0 2.8945-0.59766 3.75-1.7969 0.86328-1.1953 1.2969-2.9297 1.2969-5.2031 0-2.2812-0.43359-4.0195-1.2969-5.2188-0.85547-1.1953-2.1055-1.7969-3.75-1.7969-1.625 0-2.8711 0.60156-3.7344 1.7969-0.85547 1.1992-1.2812 2.9375-1.2812 5.2188 0 2.2734 0.42578 4.0078 1.2812 5.2031 0.86328 1.1992 2.1094 1.7969 3.7344 1.7969z"/>
  </symbol>
  <symbol id="g" overflow="visible">
   <path d="m16.406-4.9375c1.6328 0 2.8828-0.59766 3.75-1.7969 0.86328-1.1953 1.2969-2.9297 1.2969-5.2031 0-2.2812-0.43359-4.0195-1.2969-5.2188-0.86719-1.1953-2.1172-1.7969-3.75-1.7969-1.6367 0-2.8906 0.60547-3.7656 1.8125-0.875 1.1992-1.3125 2.9336-1.3125 5.2031 0 2.2617 0.4375 3.9961 1.3125 5.2031 0.875 1.1992 2.1289 1.7969 3.7656 1.7969zm-5.0781-15.484c1.0508-1.3945 2.2188-2.4219 3.5-3.0781 1.2812-0.66406 2.7539-1 4.4219-1 2.9453 0 5.3672 1.1719 7.2656 3.5156 1.8945 2.3438 2.8438 5.3594 2.8438 9.0469s-0.94922 6.7031-2.8438 9.0469c-1.8984 2.3438-4.3203 3.5156-7.2656 3.5156-1.668 0-3.1406-0.33594-4.4219-1s-2.4492-1.6914-3.5-3.0781v3.4531h-7.6562v-33.234h7.6562z"/>
  </symbol>
  <symbol id="f" overflow="visible">
   <path d="m0.53125-23.922h7.6562l6.4219 16.234 5.4688-16.234h7.6562l-10.062 26.188c-1.0117 2.6641-2.1953 4.5234-3.5469 5.5781-1.3438 1.0625-3.1211 1.5938-5.3281 1.5938h-4.4219v-5.0156h2.3906c1.3008 0 2.2422-0.21094 2.8281-0.625 0.59375-0.40625 1.0547-1.1484 1.3906-2.2188l0.20312-0.65625z"/>
  </symbol>
  <symbol id="e" overflow="visible">
   <path d="m27.734-14.562v14.562h-7.7031v-11.156c0-2.0625-0.046875-3.4844-0.14062-4.2656-0.085937-0.78125-0.24219-1.3594-0.46875-1.7344-0.30469-0.5-0.71094-0.88281-1.2188-1.1562-0.51172-0.28125-1.0938-0.42188-1.75-0.42188-1.5938 0-2.8516 0.61719-3.7656 1.8438-0.90625 1.2305-1.3594 2.9375-1.3594 5.125v11.766h-7.6562v-23.922h7.6562v3.5c1.1445-1.3945 2.3633-2.4219 3.6562-3.0781 1.3008-0.66406 2.7383-1 4.3125-1 2.7578 0 4.8516 0.85156 6.2812 2.5469 1.4375 1.6875 2.1562 4.1523 2.1562 7.3906z"/>
  </symbol>
  <symbol id="k" overflow="visible">
   <path d="m3.6719-23.922h7.6562v23.5c0 3.1953-0.77344 5.6406-2.3125 7.3281-1.543 1.6875-3.7734 2.5312-6.6875 2.5312h-3.7812v-5.0156h1.3281c1.4453 0 2.4414-0.32812 2.9844-0.98438 0.53906-0.65625 0.8125-1.9453 0.8125-3.8594zm0-9.3125h7.6562v6.2344h-7.6562z"/>
  </symbol>
  <symbol id="j" overflow="visible">
   <path d="m3.6719-23.922h7.6562v23.922h-7.6562zm0-9.3125h7.6562v6.2344h-7.6562z"/>
  </symbol>
  <symbol id="i" overflow="visible">
   <path d="m3.6719-33.234h7.6562v18.094l8.7969-8.7812h8.8906l-11.688 10.969 12.594 12.953h-9.2656l-9.3281-9.9688v9.9688h-7.6562z"/>
  </symbol>
 </defs>
 <g>
  <path d="m259.74 341.26h46.883l-23.441-42.98z"/>
  <path d="m350 262.5c6.2539 0 12.031 3.3359 15.156 8.75s3.125 12.086 0 17.5-8.9023 8.75-15.156 8.75c8.8789-0.027344 17.387-3.5508 23.688-9.8086l7.6914-7.6914-7.6914-7.6914c-6.3008-6.2578-14.809-9.7812-23.688-9.8086z"/>
  <path d="m350 384.24 13.895-25.48h-27.789z"/>
  <path d="m332.5 280c0-4.6406 1.8438-9.0938 5.125-12.375s7.7344-5.125 12.375-5.125c-8.8789 0.027344-17.387 3.5508-23.688 9.8086l-7.6914 7.6914 7.6914 7.6914c6.3008 6.2578 14.809 9.7812 23.688 9.8086-4.6406 0-9.0938-1.8438-12.375-5.125s-5.125-7.7344-5.125-12.375z"/>
  <path d="m303.51 131.25c0 8.1523-6.6094 14.762-14.762 14.762s-14.762-6.6094-14.762-14.762 6.6094-14.762 14.762-14.762 14.762 6.6094 14.762 14.762"/>
  <path d="m439.25 428.57-40.25 8.0508-15.496 23.238c-1.6211 2.4219-4.3398 3.8789-7.2539 3.8867h-87.5c-1.4844 0.003906-2.9453-0.37891-4.2422-1.1016l-65.758-36.523v63.875c0 2.3203 0.92188 4.5469 2.5625 6.1875s3.8672 2.5625 6.1875 2.5625h245c2.3203 0 4.5469-0.92188 6.1875-2.5625s2.5625-3.8672 2.5625-6.1875v-95.07l-38.141 31.789c-1.1133 0.92969-2.4375 1.5664-3.8594 1.8555z"/>
  <path d="m373.44 218.75h-46.883l-33.434 61.25 33.406 61.25h46.883l33.461-61.25zm12.617 81.312c-9.5625 9.5664-22.535 14.938-36.059 14.938s-26.496-5.3711-36.059-14.938l-13.879-13.879v0.003906c-3.4141-3.418-3.4141-8.957 0-12.375l13.879-13.879v0.003906c9.5625-9.5664 22.535-14.938 36.059-14.938s26.496 5.3711 36.059 14.938l13.879 13.879v-0.003906c3.4141 3.418 3.4141 8.957 0 12.375z"/>
  <path d="m306.62 218.75h-46.883l23.441 42.98z"/>
  <path d="m350 175.77-13.895 25.48h27.789z"/>
  <path d="m446.25 122.5c0 14.496-11.754 26.25-26.25 26.25s-26.25-11.754-26.25-26.25 11.754-26.25 26.25-26.25 26.25 11.754 26.25 26.25"/>
  <path d="m490 26.25h-280c-6.9609 0-13.641 2.7656-18.562 7.6875s-7.6875 11.602-7.6875 18.562v455c0 6.9609 2.7656 13.641 7.6875 18.562s11.602 7.6875 18.562 7.6875h280c6.9609 0 13.641-2.7656 18.562-7.6875s7.6875-11.602 7.6875-18.562v-455c0-6.9609-2.7656-13.641-7.6875-18.562s-11.602-7.6875-18.562-7.6875zm8.75 463.75c0 6.9609-2.7656 13.641-7.6875 18.562s-11.602 7.6875-18.562 7.6875h-245c-6.9609 0-13.641-2.7656-18.562-7.6875s-7.6875-11.602-7.6875-18.562v-420c0-6.9609 2.7656-13.641 7.6875-18.562s11.602-7.6875 18.562-7.6875h245c6.9609 0 13.641 2.7656 18.562 7.6875s7.6875 11.602 7.6875 18.562z"/>
  <path d="m416.82 261.73 23.441-42.98h-46.883z"/>
  <path d="m472.5 61.25h-245c-4.832 0-8.75 3.918-8.75 8.75v336.11l72.266 40.145h80.551l14.875-22.355h0.003906c1.2891-1.9297 3.2891-3.2656 5.5625-3.7188l41.57-8.3203 47.672-39.711v-302.14c0-2.3203-0.92188-4.5469-2.5625-6.1875s-3.8672-2.5625-6.1875-2.5625zm-227.5 61.25c9.2812 0 18.184-3.6875 24.75-10.25 6.5625-6.5664 10.25-15.469 10.25-24.75 0-4.832 3.918-8.75 8.75-8.75s8.75 3.918 8.75 8.75c0 9.2812 3.6875 18.184 10.25 24.75 6.5664 6.5625 15.469 10.25 24.75 10.25 4.832 0 8.75 3.918 8.75 8.75s-3.918 8.75-8.75 8.75c-9.2812 0-18.184 3.6875-24.75 10.25-6.5625 6.5664-10.25 15.469-10.25 24.75 0 4.832-3.918 8.75-8.75 8.75s-8.75-3.918-8.75-8.75c0-9.2812-3.6875-18.184-10.25-24.75-6.5664-6.5625-15.469-10.25-24.75-10.25-4.832 0-8.75-3.918-8.75-8.75s3.918-8.75 8.75-8.75zm217.68 223.32c1.4727 2.7109 1.4141 6-0.16406 8.6523-1.5742 2.6523-4.4336 4.2812-7.5195 4.2812h-71.172l-26.145 47.949c-1.5352 2.8125-4.4805 4.5625-7.6836 4.5625s-6.1484-1.75-7.6836-4.5625l-26.145-47.949h-71.172c-3.0898 0-5.9492-1.6289-7.5273-4.2852-1.5742-2.6523-1.6328-5.9453-0.15625-8.6562l35.895-65.809-35.875-65.809c-1.4805-2.707-1.4219-5.9961 0.15234-8.6523 1.5703-2.6523 4.4258-4.2852 7.5117-4.2891h71.172l26.145-47.941c1.6719-2.6289 4.5703-4.2227 7.6836-4.2227s6.0117 1.5938 7.6836 4.2227l26.145 47.941h71.172c3.0898 0 5.9492 1.6289 7.5273 4.2852 1.5742 2.6523 1.6328 5.9453 0.15625 8.6562l-35.895 65.809zm-42.684-179.57c-11.602 0-22.73-4.6094-30.938-12.812-8.2031-8.207-12.812-19.336-12.812-30.938s4.6094-22.73 12.812-30.938c8.207-8.2031 19.336-12.812 30.938-12.812s22.73 4.6094 30.938 12.812c8.2031 8.207 12.812 19.336 12.812 30.938-0.015625 11.598-4.6289 22.719-12.828 30.922-8.2031 8.1992-19.324 12.812-30.922 12.828z"/>
  <path d="m393.38 341.26h46.883l-23.441-42.98z"/>
  <use x="70" y="691.25" xlink:href="#l"/>
  <use x="102.109375" y="691.25" xlink:href="#c"/>
  <use x="123.683594" y="691.25" xlink:href="#b"/>
  <use x="153.355469" y="691.25" xlink:href="#a"/>
  <use x="182.878906" y="691.25" xlink:href="#d"/>
  <use x="203.792969" y="691.25" xlink:href="#b"/>
  <use x="233.464844" y="691.25" xlink:href="#h"/>
  <use x="280.011719" y="691.25" xlink:href="#g"/>
  <use x="311.328125" y="691.25" xlink:href="#f"/>
  <use x="355.078125" y="691.25" xlink:href="#e"/>
  <use x="386.226562" y="691.25" xlink:href="#a"/>
  <use x="415.75" y="691.25" xlink:href="#c"/>
  <use x="437.324219" y="691.25" xlink:href="#b"/>
  <use x="466.996094" y="691.25" xlink:href="#b"/>
  <use x="496.667969" y="691.25" xlink:href="#c"/>
  <use x="518.246094" y="691.25" xlink:href="#a"/>
  <use x="547.769531" y="691.25" xlink:href="#d"/>
  <use x="583.914062" y="691.25" xlink:href="#k"/>
  <use x="598.910156" y="691.25" xlink:href="#a"/>
  <use x="628.433594" y="691.25" xlink:href="#j"/>
  <use x="643.429687" y="691.25" xlink:href="#i"/>
  <use x="672.523438" y="691.25" xlink:href="#a"/>
 </g>
</svg>
